<svg xmlns="http://www.w3.org/2000/svg" viewBox="0 0 1200 300" fill="none">
  <defs>
    <linearGradient id="bg" x1="0%" y1="0%" x2="100%" y2="100%">
      <stop offset="0%" stop-color="#0a1628"/>
      <stop offset="50%" stop-color="#0d1f3c"/>
      <stop offset="100%" stop-color="#0d1117"/>
    </linearGradient>
    <linearGradient id="accent" x1="0%" y1="0%" x2="100%" y2="0%">
      <stop offset="0%" stop-color="#4fc3f7"/>
      <stop offset="100%" stop-color="#2196f3"/>
    </linearGradient>
  </defs>
  <rect width="1200" height="300" fill="url(#bg)"/>
  <rect x="0" y="296" width="1200" height="4" fill="url(#accent)"/>
  <g opacity="0.03" stroke="#fff" stroke-width="1">
    <line x1="0" y1="60" x2="1200" y2="60"/><line x1="0" y1="120" x2="1200" y2="120"/>
    <line x1="0" y1="180" x2="1200" y2="180"/><line x1="0" y1="240" x2="1200" y2="240"/>
    <line x1="200" y1="0" x2="200" y2="300"/><line x1="400" y1="0" x2="400" y2="300"/>
    <line x1="600" y1="0" x2="600" y2="300"/><line x1="800" y1="0" x2="800" y2="300"/>
    <line x1="1000" y1="0" x2="1000" y2="300"/>
  </g>
  <!-- Router icon -->
  <g transform="translate(405, 55)">
    <circle cx="50" cy="40" r="12" fill="none" stroke="#4fc3f7" stroke-width="2.5"/>
    <circle cx="20" cy="15" r="6" fill="#4fc3f7" opacity="0.6"/>
    <circle cx="80" cy="15" r="6" fill="#4fc3f7" opacity="0.6"/>
    <circle cx="20" cy="65" r="6" fill="#4fc3f7" opacity="0.6"/>
    <circle cx="80" cy="65" r="6" fill="#4fc3f7" opacity="0.6"/>
    <line x1="26" y1="19" x2="40" y2="33" stroke="#4fc3f7" stroke-width="1.5" opacity="0.5"/>
    <line x1="74" y1="19" x2="60" y2="33" stroke="#4fc3f7" stroke-width="1.5" opacity="0.5"/>
    <line x1="26" y1="61" x2="40" y2="47" stroke="#4fc3f7" stroke-width="1.5" opacity="0.5"/>
    <line x1="74" y1="61" x2="60" y2="47" stroke="#4fc3f7" stroke-width="1.5" opacity="0.5"/>
    <text x="42" y="46" font-family="monospace" font-size="14" fill="#fff" font-weight="700">R</text>
  </g>
  <text x="500" y="110" font-family="'Segoe UI', system-ui, sans-serif" font-size="52" font-weight="800" fill="#ffffff" letter-spacing="-1">Model Router</text>
  <text x="405" y="155" font-family="'Segoe UI', system-ui, sans-serif" font-size="20" fill="#4fc3f7" font-weight="500">Universal LLM routing for shell scripts</text>
  <g transform="translate(405, 200)">
    <rect x="0" y="0" width="170" height="32" rx="16" fill="#4fc3f7" opacity="0.15"/>
    <text x="85" y="21" font-family="'Segoe UI', system-ui, sans-serif" font-size="13" fill="#4fc3f7" font-weight="600" text-anchor="middle">5 Providers, 6 Tiers</text>
    <rect x="185" y="0" width="130" height="32" rx="16" fill="#4fc3f7" opacity="0.15"/>
    <text x="250" y="21" font-family="'Segoe UI', system-ui, sans-serif" font-size="13" fill="#4fc3f7" font-weight="600" text-anchor="middle">~300 Lines</text>
    <rect x="330" y="0" width="180" height="32" rx="16" fill="#4fc3f7" opacity="0.15"/>
    <text x="420" y="21" font-family="'Segoe UI', system-ui, sans-serif" font-size="13" fill="#4fc3f7" font-weight="600" text-anchor="middle">225 Cron Jobs in Prod</text>
  </g>
  <text x="405" y="270" font-family="'Segoe UI', system-ui, sans-serif" font-size="13" fill="#8b949e">Part of AgentStack  |  Open Source  |  MIT License</text>
</svg>